<svg width="30" height="30" viewBox="0 0 30 30" fill="none" xmlns="http://www.w3.org/2000/svg">
<path d="M25.1 14.275L20.05 7.2125C19.625 6.6125 18.9375 6.25 18.2 6.25C16.3375 6.25 15.2625 8.35 16.3375 9.8625L20 15L16.3375 20.1375C15.25 21.65 16.3375 23.75 18.2 23.75C18.9375 23.75 19.6375 23.3875 20.0625 22.7875L25.1125 15.725C25.4125 15.2875 25.4125 14.7125 25.1 14.275Z" fill="white"/>
<path d="M16.35 14.275L11.3125 7.2125C10.875 6.6125 10.1875 6.25 9.45 6.25C7.5875 6.25 6.5 8.35 7.5875 9.8625L11.25 15L7.5875 20.1375C6.5 21.65 7.5875 23.75 9.45 23.75C10.1875 23.75 10.8875 23.3875 11.3125 22.7875L16.3625 15.725C16.6625 15.2875 16.6625 14.7125 16.35 14.275Z" fill="white"/>
</svg>
