<svg width="256" height="256" viewBox="0 0 256 256" fill="#4F6EBB" xmlns="http://www.w3.org/2000/svg">
<path d="M128 24C107.431 24 87.3235 30.0995 70.2207 41.5272C53.118 52.9548 39.7881 69.1974 31.9166 88.2009C24.0451 107.204 21.9855 128.115 25.9984 148.289C30.0112 168.463 39.9163 186.994 54.4609 201.539C69.0056 216.084 87.5366 225.989 107.711 230.002C127.885 234.015 148.796 231.955 167.799 224.083C186.803 216.212 203.045 202.882 214.473 185.779C225.901 168.677 232 148.569 232 128C231.971 100.426 221.004 73.9905 201.507 54.4931C182.01 34.9956 155.574 24.0291 128 24ZM128 216C110.595 216 93.5814 210.839 79.1099 201.169C64.6383 191.5 53.3592 177.756 46.6986 161.676C40.0381 145.596 38.2954 127.902 41.6909 110.832C45.0864 93.7617 53.4676 78.0816 65.7747 65.7746C78.0817 53.4676 93.7618 45.0864 110.832 41.6909C127.902 38.2954 145.596 40.0381 161.676 46.6986C177.756 53.3591 191.5 64.6383 201.169 79.1098C210.839 93.5813 216 110.595 216 128C215.974 151.331 206.694 173.699 190.196 190.196C173.699 206.694 151.331 215.974 128 216ZM176 128C176 130.122 175.157 132.157 173.657 133.657C172.157 135.157 170.122 136 168 136H136V168C136 170.122 135.157 172.157 133.657 173.657C132.157 175.157 130.122 176 128 176C125.878 176 123.843 175.157 122.343 173.657C120.843 172.157 120 170.122 120 168V136H88C85.8783 136 83.8435 135.157 82.3432 133.657C80.8429 132.157 80 130.122 80 128C80 125.878 80.8429 123.843 82.3432 122.343C83.8435 120.843 85.8783 120 88 120H120V88C120 85.8783 120.843 83.8434 122.343 82.3431C123.843 80.8429 125.878 80 128 80C130.122 80 132.157 80.8429 133.657 82.3431C135.157 83.8434 136 85.8783 136 88V120H168C170.122 120 172.157 120.843 173.657 122.343C175.157 123.843 176 125.878 176 128Z" fill="##231E8D"/>
</svg>
